<mxfile host="app.diagrams.net" modified="2024-04-03T14:25:08.530Z" agent="Mozilla/5.0 (Windows NT 10.0; Win64; x64) AppleWebKit/537.36 (KHTML, like Gecko) Chrome/123.0.0.0 Safari/537.36 Edg/123.0.0.0" etag="9zS55ZQqNeTE9GITEt8w" version="24.2.1" type="github">
  <diagram name="Page-1" id="e7e014a7-5840-1c2e-5031-d8a46d1fe8dd">
    <mxGraphModel dx="1517" dy="1009" grid="1" gridSize="10" guides="1" tooltips="1" connect="1" arrows="1" fold="1" page="1" pageScale="1" pageWidth="1169" pageHeight="826" background="none" math="0" shadow="0">
      <root>
        <mxCell id="0" />
        <mxCell id="1" parent="0" />
        <mxCell id="2" value="Backend Code" style="swimlane;whiteSpace=wrap" parent="1" vertex="1">
          <mxGeometry x="100" y="128" width="344.5" height="570" as="geometry" />
        </mxCell>
        <mxCell id="5" value="" style="ellipse;shape=startState;fillColor=#000000;strokeColor=#ff0000;" parent="2" vertex="1">
          <mxGeometry x="20" y="42" width="30" height="30" as="geometry" />
        </mxCell>
        <mxCell id="6" value="" style="edgeStyle=elbowEdgeStyle;elbow=horizontal;verticalAlign=bottom;endArrow=open;endSize=8;strokeColor=#FF0000;endFill=1;rounded=0;entryX=0.475;entryY=0.559;entryDx=0;entryDy=0;exitX=0.508;exitY=0.838;exitDx=0;exitDy=0;entryPerimeter=0;exitPerimeter=0;" parent="2" source="5" target="GlpMm1AC5LMR_M8RA__O-44" edge="1">
          <mxGeometry x="100" y="40" as="geometry">
            <mxPoint x="275" y="152" as="targetPoint" />
            <mxPoint x="130" y="57" as="sourcePoint" />
            <Array as="points">
              <mxPoint x="35" y="92" />
            </Array>
          </mxGeometry>
        </mxCell>
        <mxCell id="8" value="Scraper Code Run" style="" parent="2" vertex="1">
          <mxGeometry x="90" y="172" width="110" height="50" as="geometry" />
        </mxCell>
        <mxCell id="10" value="HTML retrieved" style="" parent="2" vertex="1">
          <mxGeometry x="90" y="252" width="110" height="50" as="geometry" />
        </mxCell>
        <mxCell id="GlpMm1AC5LMR_M8RA__O-44" value="" style="shape=line;strokeWidth=6;strokeColor=#ff0000;rotation=90" vertex="1" parent="2">
          <mxGeometry x="90" y="102" width="50" height="15" as="geometry" />
        </mxCell>
        <mxCell id="GlpMm1AC5LMR_M8RA__O-48" value="" style="edgeStyle=elbowEdgeStyle;elbow=horizontal;verticalAlign=bottom;endArrow=open;endSize=8;strokeColor=#FF0000;endFill=1;rounded=0;entryX=0.5;entryY=0;entryDx=0;entryDy=0;exitX=0.75;exitY=0.5;exitDx=0;exitDy=0;exitPerimeter=0;" edge="1" parent="2" source="GlpMm1AC5LMR_M8RA__O-44" target="8">
          <mxGeometry x="10" y="-60" as="geometry">
            <mxPoint x="90" y="168" as="targetPoint" />
            <mxPoint x="120" y="110" as="sourcePoint" />
            <Array as="points">
              <mxPoint x="145" y="142" />
            </Array>
          </mxGeometry>
        </mxCell>
        <mxCell id="GlpMm1AC5LMR_M8RA__O-49" value="Data strained" style="" vertex="1" parent="2">
          <mxGeometry x="90" y="332" width="110" height="50" as="geometry" />
        </mxCell>
        <mxCell id="GlpMm1AC5LMR_M8RA__O-51" value="Format Data" style="" vertex="1" parent="2">
          <mxGeometry x="90" y="412" width="110" height="50" as="geometry" />
        </mxCell>
        <mxCell id="GlpMm1AC5LMR_M8RA__O-52" value="Commit Data &#xa;to Database" style="" vertex="1" parent="2">
          <mxGeometry x="220" y="332" width="110" height="50" as="geometry" />
        </mxCell>
        <mxCell id="GlpMm1AC5LMR_M8RA__O-54" value="" style="endArrow=open;strokeColor=#FF0000;endFill=1;rounded=0;exitX=0.5;exitY=1;exitDx=0;exitDy=0;entryX=0.5;entryY=0;entryDx=0;entryDy=0;" edge="1" parent="2" source="10" target="GlpMm1AC5LMR_M8RA__O-49">
          <mxGeometry relative="1" as="geometry">
            <mxPoint x="160" y="302" as="sourcePoint" />
            <mxPoint x="160" y="332" as="targetPoint" />
            <Array as="points" />
          </mxGeometry>
        </mxCell>
        <mxCell id="11" value="" style="endArrow=open;strokeColor=#FF0000;endFill=1;rounded=0;exitX=0.5;exitY=1;exitDx=0;exitDy=0;entryX=0.5;entryY=0;entryDx=0;entryDy=0;" parent="2" source="8" target="10" edge="1">
          <mxGeometry relative="1" as="geometry">
            <mxPoint x="64" y="212" as="targetPoint" />
            <Array as="points" />
          </mxGeometry>
        </mxCell>
        <mxCell id="GlpMm1AC5LMR_M8RA__O-56" value="" style="endArrow=open;strokeColor=#FF0000;endFill=1;rounded=0;exitX=0.5;exitY=1;exitDx=0;exitDy=0;entryX=0.5;entryY=0;entryDx=0;entryDy=0;" edge="1" parent="2" source="GlpMm1AC5LMR_M8RA__O-49" target="GlpMm1AC5LMR_M8RA__O-51">
          <mxGeometry relative="1" as="geometry">
            <mxPoint x="110" y="212" as="sourcePoint" />
            <mxPoint x="80" y="242" as="targetPoint" />
            <Array as="points" />
          </mxGeometry>
        </mxCell>
        <mxCell id="GlpMm1AC5LMR_M8RA__O-57" value="" style="endArrow=open;strokeColor=#FF0000;endFill=1;rounded=0;exitX=1;exitY=0.5;exitDx=0;exitDy=0;entryX=0.5;entryY=1;entryDx=0;entryDy=0;" edge="1" parent="2" source="GlpMm1AC5LMR_M8RA__O-51" target="GlpMm1AC5LMR_M8RA__O-52">
          <mxGeometry relative="1" as="geometry">
            <mxPoint x="190" y="362" as="sourcePoint" />
            <mxPoint x="160" y="392" as="targetPoint" />
            <Array as="points">
              <mxPoint x="275" y="437" />
            </Array>
          </mxGeometry>
        </mxCell>
        <mxCell id="3" value="Product Database" style="swimlane;whiteSpace=wrap" parent="1" vertex="1">
          <mxGeometry x="445" y="128" width="315" height="570" as="geometry" />
        </mxCell>
        <mxCell id="7" value="Product Database&#xa; idle" style="" parent="3" vertex="1">
          <mxGeometry x="15" y="102" width="110" height="50" as="geometry" />
        </mxCell>
        <mxCell id="GlpMm1AC5LMR_M8RA__O-59" value="" style="shape=line;strokeWidth=6;strokeColor=#ff0000;rotation=0;" vertex="1" parent="3">
          <mxGeometry x="35.5" y="332" width="50" height="15" as="geometry" />
        </mxCell>
        <mxCell id="GlpMm1AC5LMR_M8RA__O-60" value="" style="endArrow=open;strokeColor=#FF0000;endFill=1;rounded=0;exitX=0.5;exitY=1;exitDx=0;exitDy=0;entryX=0.75;entryY=0.5;entryDx=0;entryDy=0;entryPerimeter=0;" edge="1" parent="3" source="7" target="GlpMm1AC5LMR_M8RA__O-59">
          <mxGeometry relative="1" as="geometry">
            <mxPoint x="-189.5" y="232" as="sourcePoint" />
            <mxPoint x="130.5" y="302" as="targetPoint" />
            <Array as="points" />
          </mxGeometry>
        </mxCell>
        <mxCell id="GlpMm1AC5LMR_M8RA__O-61" value="Database Update" style="" vertex="1" parent="3">
          <mxGeometry x="5.5" y="372" width="110" height="50" as="geometry" />
        </mxCell>
        <mxCell id="GlpMm1AC5LMR_M8RA__O-62" value="" style="endArrow=open;strokeColor=#FF0000;endFill=1;rounded=0;entryX=0.5;entryY=0;entryDx=0;entryDy=0;exitX=0.51;exitY=0.589;exitDx=0;exitDy=0;exitPerimeter=0;" edge="1" parent="3" source="GlpMm1AC5LMR_M8RA__O-59" target="GlpMm1AC5LMR_M8RA__O-61">
          <mxGeometry relative="1" as="geometry">
            <mxPoint x="65.5" y="352" as="sourcePoint" />
            <mxPoint x="120.16000000000008" y="252" as="targetPoint" />
            <Array as="points" />
          </mxGeometry>
        </mxCell>
        <mxCell id="GlpMm1AC5LMR_M8RA__O-63" value="" style="edgeStyle=elbowEdgeStyle;elbow=horizontal;verticalAlign=bottom;endArrow=open;endSize=8;strokeColor=#FF0000;endFill=1;rounded=0;entryX=0.996;entryY=0.883;entryDx=0;entryDy=0;exitX=1;exitY=0.5;exitDx=0;exitDy=0;entryPerimeter=0;" edge="1" parent="3" source="GlpMm1AC5LMR_M8RA__O-61" target="7">
          <mxGeometry x="-434.5" y="-188" as="geometry">
            <mxPoint x="158" y="382" as="targetPoint" />
            <mxPoint x="123" y="311.9999999999999" as="sourcePoint" />
            <Array as="points">
              <mxPoint x="145" y="272" />
            </Array>
          </mxGeometry>
        </mxCell>
        <mxCell id="GlpMm1AC5LMR_M8RA__O-58" value="" style="endArrow=open;strokeColor=#FF0000;endFill=1;rounded=0;exitX=1;exitY=0.5;exitDx=0;exitDy=0;entryX=0.25;entryY=0.5;entryDx=0;entryDy=0;entryPerimeter=0;" edge="1" parent="3" source="GlpMm1AC5LMR_M8RA__O-52" target="GlpMm1AC5LMR_M8RA__O-59">
          <mxGeometry relative="1" as="geometry">
            <mxPoint x="310.5" y="255" as="sourcePoint" />
            <mxPoint x="105.5" y="182" as="targetPoint" />
            <Array as="points">
              <mxPoint x="15.5" y="357" />
              <mxPoint x="15.5" y="262" />
              <mxPoint x="45.5" y="262" />
            </Array>
          </mxGeometry>
        </mxCell>
        <mxCell id="GlpMm1AC5LMR_M8RA__O-121" value="" style="edgeStyle=orthogonalEdgeStyle;html=1;verticalAlign=bottom;endArrow=open;endSize=8;strokeColor=#ff0000;rounded=0;exitX=1;exitY=0.5;exitDx=0;exitDy=0;" edge="1" parent="3" source="7">
          <mxGeometry relative="1" as="geometry">
            <mxPoint x="445" y="412" as="targetPoint" />
            <mxPoint x="165" y="142" as="sourcePoint" />
            <Array as="points">
              <mxPoint x="246" y="127" />
              <mxPoint x="246" y="392" />
            </Array>
          </mxGeometry>
        </mxCell>
        <mxCell id="4" value="Front End - User Application" style="swimlane;whiteSpace=wrap" parent="1" vertex="1">
          <mxGeometry x="760" y="128" width="365.5" height="570" as="geometry" />
        </mxCell>
        <mxCell id="GlpMm1AC5LMR_M8RA__O-67" value="" style="ellipse;html=1;shape=startState;fillColor=#000000;strokeColor=#ff0000;" vertex="1" parent="4">
          <mxGeometry x="25.5" y="42" width="30" height="30" as="geometry" />
        </mxCell>
        <mxCell id="GlpMm1AC5LMR_M8RA__O-68" value="" style="edgeStyle=orthogonalEdgeStyle;html=1;verticalAlign=bottom;endArrow=open;endSize=8;strokeColor=#ff0000;rounded=0;entryX=0;entryY=0.5;entryDx=0;entryDy=0;" edge="1" source="GlpMm1AC5LMR_M8RA__O-67" parent="4" target="GlpMm1AC5LMR_M8RA__O-76">
          <mxGeometry relative="1" as="geometry">
            <mxPoint x="105.5" y="57" as="targetPoint" />
          </mxGeometry>
        </mxCell>
        <mxCell id="GlpMm1AC5LMR_M8RA__O-76" value="User Loads App" style="html=1;whiteSpace=wrap;" vertex="1" parent="4">
          <mxGeometry x="122.75" y="32" width="110" height="50" as="geometry" />
        </mxCell>
        <mxCell id="GlpMm1AC5LMR_M8RA__O-77" value="" style="edgeStyle=orthogonalEdgeStyle;html=1;verticalAlign=bottom;endArrow=open;endSize=8;strokeColor=#ff0000;rounded=0;exitX=0.5;exitY=1;exitDx=0;exitDy=0;entryX=0.5;entryY=0;entryDx=0;entryDy=0;" edge="1" parent="4" source="GlpMm1AC5LMR_M8RA__O-76" target="GlpMm1AC5LMR_M8RA__O-100">
          <mxGeometry relative="1" as="geometry">
            <mxPoint x="262.75" y="104" as="targetPoint" />
            <mxPoint x="30.5" y="67" as="sourcePoint" />
          </mxGeometry>
        </mxCell>
        <mxCell id="GlpMm1AC5LMR_M8RA__O-100" value="Existing User" style="rhombus;whiteSpace=wrap;html=1;fontColor=#000000;fillColor=#ffffc0;strokeColor=#ff0000;" vertex="1" parent="4">
          <mxGeometry x="137.75" y="100" width="80" height="40" as="geometry" />
        </mxCell>
        <mxCell id="GlpMm1AC5LMR_M8RA__O-101" value="no" style="edgeStyle=orthogonalEdgeStyle;html=1;align=left;verticalAlign=bottom;endArrow=open;endSize=8;strokeColor=#ff0000;rounded=0;entryX=0.5;entryY=0;entryDx=0;entryDy=0;" edge="1" source="GlpMm1AC5LMR_M8RA__O-100" parent="4" target="GlpMm1AC5LMR_M8RA__O-103">
          <mxGeometry x="-1" relative="1" as="geometry">
            <mxPoint x="317.75" y="152" as="targetPoint" />
          </mxGeometry>
        </mxCell>
        <mxCell id="GlpMm1AC5LMR_M8RA__O-102" value="yes" style="edgeStyle=orthogonalEdgeStyle;html=1;align=left;verticalAlign=top;endArrow=open;endSize=8;strokeColor=#ff0000;rounded=0;" edge="1" source="GlpMm1AC5LMR_M8RA__O-100" parent="4">
          <mxGeometry x="-1" relative="1" as="geometry">
            <mxPoint x="177.75" y="232" as="targetPoint" />
          </mxGeometry>
        </mxCell>
        <mxCell id="GlpMm1AC5LMR_M8RA__O-103" value="Register User Details" style="html=1;whiteSpace=wrap;" vertex="1" parent="4">
          <mxGeometry x="240" y="150" width="110" height="50" as="geometry" />
        </mxCell>
        <mxCell id="GlpMm1AC5LMR_M8RA__O-113" value="Authenticate User Details" style="html=1;whiteSpace=wrap;" vertex="1" parent="4">
          <mxGeometry x="122.75" y="232" width="110" height="50" as="geometry" />
        </mxCell>
        <mxCell id="GlpMm1AC5LMR_M8RA__O-116" value="" style="edgeStyle=orthogonalEdgeStyle;html=1;verticalAlign=bottom;endArrow=open;endSize=8;strokeColor=#ff0000;rounded=0;exitX=0;exitY=0.5;exitDx=0;exitDy=0;" edge="1" parent="4">
          <mxGeometry relative="1" as="geometry">
            <mxPoint x="220" y="342" as="targetPoint" />
            <mxPoint x="400" y="252" as="sourcePoint" />
            <Array as="points">
              <mxPoint x="400" y="253" />
              <mxPoint x="280" y="253" />
            </Array>
          </mxGeometry>
        </mxCell>
        <mxCell id="GlpMm1AC5LMR_M8RA__O-118" value="Search for Products" style="html=1;whiteSpace=wrap;" vertex="1" parent="4">
          <mxGeometry x="110" y="332" width="110" height="50" as="geometry" />
        </mxCell>
        <mxCell id="GlpMm1AC5LMR_M8RA__O-122" value="Return Products" style="html=1;whiteSpace=wrap;" vertex="1" parent="4">
          <mxGeometry x="110" y="412" width="110" height="50" as="geometry" />
        </mxCell>
        <mxCell id="GlpMm1AC5LMR_M8RA__O-123" value="" style="ellipse;html=1;shape=endState;fillColor=#000000;strokeColor=#ff0000;" vertex="1" parent="4">
          <mxGeometry x="150" y="512" width="30" height="30" as="geometry" />
        </mxCell>
        <mxCell id="GlpMm1AC5LMR_M8RA__O-124" value="" style="edgeStyle=orthogonalEdgeStyle;html=1;verticalAlign=bottom;endArrow=open;endSize=8;strokeColor=#ff0000;rounded=0;entryX=0.5;entryY=0;entryDx=0;entryDy=0;exitX=0.5;exitY=1;exitDx=0;exitDy=0;" edge="1" parent="4" source="GlpMm1AC5LMR_M8RA__O-122" target="GlpMm1AC5LMR_M8RA__O-123">
          <mxGeometry relative="1" as="geometry">
            <mxPoint x="232.75" y="492" as="targetPoint" />
            <mxPoint x="165.75" y="492" as="sourcePoint" />
          </mxGeometry>
        </mxCell>
        <mxCell id="GlpMm1AC5LMR_M8RA__O-47" value="" style="edgeStyle=elbowEdgeStyle;elbow=horizontal;verticalAlign=bottom;endArrow=open;endSize=8;strokeColor=#FF0000;endFill=1;rounded=0;entryX=0;entryY=0.25;entryDx=0;entryDy=0;exitX=0.25;exitY=0.5;exitDx=0;exitDy=0;exitPerimeter=0;" edge="1" parent="1" source="GlpMm1AC5LMR_M8RA__O-44" target="7">
          <mxGeometry x="110" y="68" as="geometry">
            <mxPoint x="319" y="309" as="targetPoint" />
            <mxPoint x="240" y="268" as="sourcePoint" />
            <Array as="points">
              <mxPoint x="340" y="270" />
            </Array>
          </mxGeometry>
        </mxCell>
        <mxCell id="GlpMm1AC5LMR_M8RA__O-92" value="Product Database" style="swimlane;whiteSpace=wrap" vertex="1" parent="1">
          <mxGeometry x="1125.5" y="128" width="315" height="570" as="geometry" />
        </mxCell>
        <mxCell id="GlpMm1AC5LMR_M8RA__O-93" value="Product Database&#xa; idle" style="" vertex="1" parent="GlpMm1AC5LMR_M8RA__O-92">
          <mxGeometry x="184.5" y="152" width="110" height="50" as="geometry" />
        </mxCell>
        <mxCell id="GlpMm1AC5LMR_M8RA__O-104" value="Update Database" style="" vertex="1" parent="GlpMm1AC5LMR_M8RA__O-92">
          <mxGeometry x="24.5" y="232" width="110" height="50" as="geometry" />
        </mxCell>
        <mxCell id="GlpMm1AC5LMR_M8RA__O-106" value="" style="edgeStyle=orthogonalEdgeStyle;html=1;verticalAlign=bottom;endArrow=open;endSize=8;strokeColor=#ff0000;rounded=0;exitX=0;exitY=0.5;exitDx=0;exitDy=0;entryX=1;entryY=0.25;entryDx=0;entryDy=0;" edge="1" parent="GlpMm1AC5LMR_M8RA__O-92" source="GlpMm1AC5LMR_M8RA__O-93" target="GlpMm1AC5LMR_M8RA__O-104">
          <mxGeometry relative="1" as="geometry">
            <mxPoint x="194.5" y="167" as="targetPoint" />
            <mxPoint x="144.5" y="166.57999999999998" as="sourcePoint" />
          </mxGeometry>
        </mxCell>
        <mxCell id="GlpMm1AC5LMR_M8RA__O-109" value="" style="ellipse;html=1;shape=startState;fillColor=#000000;strokeColor=#ff0000;" vertex="1" parent="GlpMm1AC5LMR_M8RA__O-92">
          <mxGeometry x="224.5" y="62" width="30" height="30" as="geometry" />
        </mxCell>
        <mxCell id="GlpMm1AC5LMR_M8RA__O-110" value="" style="edgeStyle=orthogonalEdgeStyle;html=1;verticalAlign=bottom;endArrow=open;endSize=8;strokeColor=#ff0000;rounded=0;" edge="1" source="GlpMm1AC5LMR_M8RA__O-109" parent="GlpMm1AC5LMR_M8RA__O-92">
          <mxGeometry relative="1" as="geometry">
            <mxPoint x="239.5" y="152" as="targetPoint" />
          </mxGeometry>
        </mxCell>
        <mxCell id="GlpMm1AC5LMR_M8RA__O-111" value="" style="edgeStyle=orthogonalEdgeStyle;html=1;verticalAlign=bottom;endArrow=open;endSize=8;strokeColor=#ff0000;rounded=0;exitX=1;exitY=0.75;exitDx=0;exitDy=0;entryX=0.5;entryY=1;entryDx=0;entryDy=0;" edge="1" parent="GlpMm1AC5LMR_M8RA__O-92" source="GlpMm1AC5LMR_M8RA__O-104" target="GlpMm1AC5LMR_M8RA__O-93">
          <mxGeometry relative="1" as="geometry">
            <mxPoint x="184.5" y="299" as="targetPoint" />
            <mxPoint x="234.5" y="232" as="sourcePoint" />
          </mxGeometry>
        </mxCell>
        <mxCell id="GlpMm1AC5LMR_M8RA__O-117" value="" style="edgeStyle=orthogonalEdgeStyle;html=1;verticalAlign=bottom;endArrow=open;endSize=8;strokeColor=#ff0000;rounded=0;exitX=0.891;exitY=1.01;exitDx=0;exitDy=0;exitPerimeter=0;" edge="1" parent="GlpMm1AC5LMR_M8RA__O-92" source="GlpMm1AC5LMR_M8RA__O-93">
          <mxGeometry relative="1" as="geometry">
            <mxPoint x="-145.5" y="362" as="targetPoint" />
            <mxPoint x="304.5" y="322" as="sourcePoint" />
            <Array as="points">
              <mxPoint x="283" y="322" />
              <mxPoint x="-45" y="322" />
              <mxPoint x="-45" y="362" />
            </Array>
          </mxGeometry>
        </mxCell>
        <mxCell id="GlpMm1AC5LMR_M8RA__O-112" value="" style="edgeStyle=orthogonalEdgeStyle;html=1;verticalAlign=bottom;endArrow=open;endSize=8;strokeColor=#ff0000;rounded=0;exitX=0.5;exitY=1;exitDx=0;exitDy=0;entryX=0.5;entryY=0;entryDx=0;entryDy=0;" edge="1" parent="1" source="GlpMm1AC5LMR_M8RA__O-103" target="GlpMm1AC5LMR_M8RA__O-104">
          <mxGeometry relative="1" as="geometry">
            <mxPoint x="1030" y="413" as="targetPoint" />
            <mxPoint x="1080" y="346" as="sourcePoint" />
          </mxGeometry>
        </mxCell>
        <mxCell id="GlpMm1AC5LMR_M8RA__O-115" value="" style="edgeStyle=orthogonalEdgeStyle;html=1;verticalAlign=bottom;endArrow=open;endSize=8;strokeColor=#ff0000;rounded=0;exitX=0.5;exitY=1;exitDx=0;exitDy=0;entryX=0.75;entryY=1;entryDx=0;entryDy=0;" edge="1" parent="1" source="GlpMm1AC5LMR_M8RA__O-113" target="GlpMm1AC5LMR_M8RA__O-93">
          <mxGeometry relative="1" as="geometry">
            <mxPoint x="1400" y="450" as="targetPoint" />
            <mxPoint x="962.75" y="440" as="sourcePoint" />
            <Array as="points">
              <mxPoint x="938" y="440" />
              <mxPoint x="1393" y="440" />
              <mxPoint x="1393" y="430" />
            </Array>
          </mxGeometry>
        </mxCell>
        <mxCell id="GlpMm1AC5LMR_M8RA__O-120" value="" style="edgeStyle=orthogonalEdgeStyle;html=1;verticalAlign=bottom;endArrow=open;endSize=8;strokeColor=#ff0000;rounded=0;exitX=0;exitY=0.5;exitDx=0;exitDy=0;entryX=1;entryY=0.25;entryDx=0;entryDy=0;" edge="1" parent="1" source="GlpMm1AC5LMR_M8RA__O-118" target="7">
          <mxGeometry relative="1" as="geometry">
            <mxPoint x="630" y="260" as="targetPoint" />
            <mxPoint x="826" y="195" as="sourcePoint" />
            <Array as="points">
              <mxPoint x="720" y="485" />
              <mxPoint x="720" y="243" />
              <mxPoint x="630" y="243" />
            </Array>
          </mxGeometry>
        </mxCell>
      </root>
    </mxGraphModel>
  </diagram>
</mxfile>
